<svg id="Layer_1" data-name="Layer 1" xmlns="http://www.w3.org/2000/svg" viewBox="0 0 337.34 79.2"><defs><style>.cls-1{fill:#c8272c;}</style></defs><title>brentwood_logo</title><path class="cls-1" d="M89,14.75h8.28c4.58,0,8.94,1.73,8.94,7a6,6,0,0,1-4.9,6.08v.08c3.88.31,6.27,2.9,6.27,6.94,0,1.8-1.18,7.68-10.12,7.68H89Zm2.83,12.16h5.68c2.71,0,5.65-1.3,5.65-4.87,0-1.13-.59-4.7-5.92-4.7H91.86Zm0,13h5.41c4.08,0,7.29-1.61,7.29-5.26s-2.43-5.41-6.94-5.41H91.86Z"/><path class="cls-1" d="M115.83,42.51H113V14.75h8.55c5.64,0,9.13,2.43,9.13,7.41,0,3.84-2.55,6.79-7.09,7.18l8,13.17h-3.46l-7.6-12.9h-4.71Zm0-15.49h5c5.06,0,6.79-2.19,6.79-4.86s-1.73-4.82-6.79-4.82h-5Z"/><path class="cls-1" d="M139.07,39.93h14.86v2.58H136.24V14.75h17.22v2.59H139.07v9.45h13.45v2.59H139.07Z"/><path class="cls-1" d="M178.75,38.28h.08V14.75h2.82V42.51h-3.53L161.57,18.75h-.08V42.51h-2.82V14.75h3.53Z"/><path class="cls-1" d="M197.43,42.51H194.6V17.34h-9.29V14.75h21.41v2.59h-9.29Z"/><path class="cls-1" d="M219.28,38.51h.08l7-23.76h3.37l7,23.76h.08l6.59-23.76h3.13L238.3,42.51H235l-7-23.76H228l-7,23.76h-3.3l-8.19-27.76h3.13Z"/><path class="cls-1" d="M262.38,43.22a14.13,14.13,0,0,1-14.47-14.59,14.47,14.47,0,1,1,28.94,0A14.13,14.13,0,0,1,262.38,43.22Zm0-26.59c-7.14,0-11.41,5.61-11.41,12s4.27,12,11.41,12,11.41-5.61,11.41-12S269.52,16.63,262.38,16.63Z"/><path class="cls-1" d="M295.13,43.22a14.13,14.13,0,0,1-14.47-14.59,14.47,14.47,0,1,1,28.94,0A14.13,14.13,0,0,1,295.13,43.22Zm0-26.59c-7.14,0-11.41,5.61-11.41,12s4.27,12,11.41,12,11.41-5.61,11.41-12S302.27,16.63,295.13,16.63Z"/><path class="cls-1" d="M313.54,14.75h9.21c6.94,0,14.59,4.63,14.59,13.88s-7.65,13.88-14.59,13.88h-9.21Zm2.82,25.18h5.49c8.47,0,12.43-5.57,12.43-11.3s-4-11.29-12.43-11.29h-5.49Z"/><path class="cls-1" d="M121.09,56.66a3.46,3.46,0,0,0-2.73-1.3c-2.54,0-4.22,2-4.22,4.6a4.16,4.16,0,0,0,4.22,4.41,3.46,3.46,0,0,0,3-1.52l1.29,1a5.25,5.25,0,0,1-4.28,2A5.82,5.82,0,0,1,112.51,60a5.73,5.73,0,0,1,5.89-6,5,5,0,0,1,4,1.76Z"/><path class="cls-1" d="M127.3,59.87a5.9,5.9,0,1,1,5.9,5.94A5.76,5.76,0,0,1,127.3,59.87Zm10.16,0a4.27,4.27,0,1,0-4.26,4.5A4.25,4.25,0,0,0,137.46,59.87Z"/><path class="cls-1" d="M145.23,54.21h1.53v9.87H152v1.44h-6.72Z"/><path class="cls-1" d="M158.24,54.21h1.53v9.87H165v1.44h-6.73Z"/><path class="cls-1" d="M171.26,54.21h7.3v1.44h-5.77V59h5.37v1.44h-5.37v3.62h6.05v1.44h-7.58Z"/><path class="cls-1" d="M195.08,59.2v5.57a9.18,9.18,0,0,1-4.28,1,5.95,5.95,0,1,1-.16-11.89,5.42,5.42,0,0,1,4.21,1.47l-1.08,1.17a4.32,4.32,0,0,0-3.13-1.2,4.26,4.26,0,0,0-4.27,4.51,4.37,4.37,0,0,0,4.39,4.5,6,6,0,0,0,2.78-.59V60.63H191V59.2Z"/><path class="cls-1" d="M202.54,54.21h7.3v1.44h-5.77V59h5.37v1.44h-5.37v3.62h6.05v1.44h-7.58Z"/><path class="cls-1" d="M226.66,63.16a2.82,2.82,0,0,0,2.4,1.21,2.1,2.1,0,0,0,2.25-1.88c0-2.61-5.58-1-5.58-5.4,0-1.33,1.12-3.17,3.84-3.17a3.92,3.92,0,0,1,3.26,1.3l-1.25,1.13a2.36,2.36,0,0,0-2-1c-1.7,0-2.21,1-2.21,1.73,0,2.86,5.58,1.15,5.58,5.22,0,2.19-1.76,3.5-3.93,3.5a4.34,4.34,0,0,1-3.61-1.57Z"/><path class="cls-1" d="M247.69,56.66a3.45,3.45,0,0,0-2.73-1.3c-2.54,0-4.21,2-4.21,4.6A4.16,4.16,0,0,0,245,64.37a3.47,3.47,0,0,0,3-1.52l1.29,1a5.25,5.25,0,0,1-4.28,2A5.83,5.83,0,0,1,239.11,60a5.73,5.73,0,0,1,5.9-6,5,5,0,0,1,4,1.76Z"/><path class="cls-1" d="M255.65,54.21h1.54v4.7h5.86v-4.7h1.53V65.52h-1.53V60.35h-5.86v5.17h-1.54Z"/><path class="cls-1" d="M270.71,59.87a5.9,5.9,0,1,1,5.89,5.94A5.75,5.75,0,0,1,270.71,59.87Zm10.16,0a4.27,4.27,0,1,0-4.27,4.5A4.26,4.26,0,0,0,280.87,59.87Z"/><path class="cls-1" d="M288,59.87a5.9,5.9,0,1,1,5.9,5.94A5.76,5.76,0,0,1,288,59.87Zm10.16,0a4.27,4.27,0,1,0-4.26,4.5A4.25,4.25,0,0,0,298.13,59.87Z"/><path class="cls-1" d="M305.9,54.21h1.53v9.87h5.19v1.44H305.9Z"/><path class="cls-1" d="M21.72,34.56S17.6,31,17.5,25.67a12.52,12.52,0,0,1,7.16-12.1s-2.4,3.58-2,7.32C23.06,23.92,26,28.75,21.72,34.56Z"/><path class="cls-1" d="M22.74,34.78a13.58,13.58,0,0,0,3.05-11.14c-.95-6.07.61-9.57,5.45-11.72,4-1.77,7.76-.81,13.61-.84,5.39,0,7.09-3.42,7.09-3.42s1.76,6.23-6.86,8.14a11.48,11.48,0,0,0,14.35,2.12s-2.55,10-15.67,8.23c-6-.81-8.2.13-11.34,3.81C30,32.75,28.89,34.7,22.74,34.78Z"/><path class="cls-1" d="M37.08,27.51s.91.77,1.82,1.71a6.59,6.59,0,0,0,8.24,1.31,5.37,5.37,0,0,1-2.78-1.4A6.56,6.56,0,0,0,37.08,27.51Z"/><path class="cls-1" d="M52.22,56.46a24.24,24.24,0,0,0,1.12-6.77,25.88,25.88,0,0,0-.82-6.33l-11.7.44-.07,0c-3.6-1.23-9.52-3.2-10.11-3.23a36.25,36.25,0,0,0-5.23.56A36.07,36.07,0,0,0,21,45.19,3.32,3.32,0,0,0,24,46.44a4,4,0,0,0,2.76-1.76l.09-.16,2.43-.45.06.42c0,.22.81,5.5,7.78,5.5h.15v.8h-.16a9,9,0,0,1-6.25-2.08,2.53,2.53,0,0,1-1,1.82,2.38,2.38,0,0,1-.34,4.33,2.11,2.11,0,0,1,.61,1.48,2.15,2.15,0,0,1-.51,1.38c6.65-.19,9.14-1.6,9.16-1.62l.1-.06H39Z"/><path class="cls-1" d="M20.12,46h.54a4.8,4.8,0,0,1-.5-.62h0a.41.41,0,0,1,.06-.49c.4-.42,1.19-1.23,2-2.06H20.12a1.59,1.59,0,0,0,0,3.17Z"/><path class="cls-1" d="M29.27,56.34A1.31,1.31,0,0,0,28,55H21.2a1.32,1.32,0,0,0,0,2.63H28A1.31,1.31,0,0,0,29.27,56.34Z"/><path class="cls-1" d="M21,54.2h7.63a1.58,1.58,0,0,0,0-3.16H21a1.58,1.58,0,1,0,0,3.16Z"/><path class="cls-1" d="M20.69,50.23h7.62a1.72,1.72,0,1,0,0-3.44H25.52a4,4,0,0,1-1.49.44,3.85,3.85,0,0,1-2.29-.44h-1a1.72,1.72,0,0,0,0,3.44Z"/><path class="cls-1" d="M20.12,42h3a10,10,0,0,1,2.08-1.68,26.9,26.9,0,0,1,3.92-.51l.41-3.59H18.94l.67,5.83A2.76,2.76,0,0,1,20.12,42Z"/><polygon class="cls-1" points="21.49 58.46 22.16 64.27 26.29 64.27 26.95 58.46 21.49 58.46"/><path class="cls-1" d="M34.52,79.2,34.15,79C20.49,72.58,11.23,65.55,5.81,57.25A36.82,36.82,0,0,1,0,37.49V0H69.05V37.46a36.87,36.87,0,0,1-5.82,19.79C57.82,65.55,48.55,72.58,34.9,79ZM1.76,1.76v35.7C2.18,49.69,6.4,63.88,34.52,77.25,62.64,63.88,66.87,49.69,67.29,37.43V1.76Z"/><path class="cls-1" d="M28.9,46a9.34,9.34,0,0,1-.33-1l-1.28.24a5.34,5.34,0,0,1-.64.73Z"/></svg>